<?xml version="1.0" encoding="UTF-8"?>
<svg id="Capa_2" data-name="Capa 2" xmlns="http://www.w3.org/2000/svg" viewBox="0 0 2509.92 1487.13">
  <defs>
    <style>
      .cls-1 {
        fill: #fbffff;
      }

      .cls-2 {
        fill: #fff;
      }

      .cls-3 {
        fill: #0c1841;
      }

      .cls-4 {
        fill: #2fd1ff;
      }

      .cls-5 {
        fill: #fef363;
      }

      .cls-6 {
        fill: #fe646e;
      }
    </style>
  </defs>
  <g id="Capa_1-2" data-name="Capa 1">
    <rect class="cls-3" y="0" width="2509.92" height="1487.13"/>
    <g>
      <g>
        <g>
          <rect class="cls-1" x="1255.18" y="291.22" width="25.42" height="574.33"/>
          <g>
            <polygon class="cls-1" points="1298.32 638.58 1267.3 652.08 1236.29 638.58 921.99 501.74 932.41 479.26 1267.3 625.08 1298.32 638.58"/>
            <polygon class="cls-1" points="1612.64 501.74 1298.32 638.58 1267.3 652.08 1236.29 638.58 1267.3 625.08 1602.22 479.26 1612.64 501.74"/>
          </g>
        </g>
        <ellipse class="cls-4" cx="1267.89" cy="261.07" rx="67.42" ry="65.36"/>
        <ellipse class="cls-4" cx="1269.43" cy="919.54" rx="67.42" ry="65.36"/>
        <ellipse class="cls-4" cx="972.83" cy="639.72" rx="32.56" ry="31.56"/>
        <ellipse class="cls-4" cx="1569.88" cy="639.72" rx="32.56" ry="31.56"/>
        <ellipse class="cls-5" cx="1395.72" cy="360.54" rx="40.75" ry="39.5"/>
        <ellipse class="cls-5" cx="1134.14" cy="360.54" rx="40.75" ry="39.5"/>
        <ellipse class="cls-4" cx="1655.48" cy="470.04" rx="67.42" ry="65.36"/>
        <ellipse class="cls-4" cx="872.84" cy="479.26" rx="67.42" ry="65.36"/>
        <g>
          <polygon class="cls-1" points="1133.85 501.61 1122.56 516.42 971.92 408.51 983.21 393.7 1133.85 501.61"/>
          <path class="cls-5" d="M961.95,374.18c12.29-6.52,27.7-2.16,34.43,9.75,6.73,11.91,2.22,26.85-10.06,33.38-12.29,6.52-27.7,2.16-34.43-9.75-6.73-11.91-2.22-26.85,10.06-33.38Z"/>
        </g>
        <g>
          <polygon class="cls-1" points="1408.13 508.58 1397.27 493.47 1550.92 389.63 1561.78 404.74 1408.13 508.58"/>
          <path class="cls-5" d="M1587.66,391.45c2.45,13.37-6.75,26.13-20.55,28.5-13.79,2.37-26.96-6.55-29.41-19.92-2.45-13.37,6.75-26.13,20.55-28.5s26.96,6.55,29.41,19.92Z"/>
        </g>
        <g>
          <polygon class="cls-1" points="1178.44 710.56 1161.79 691.95 1215.5 646.79 1232.16 665.4 1178.44 710.56"/>
          <path class="cls-6" d="M1107.06,749.77c6.74-12.15-22.21-37.72-15.51-53.12,6.69-15.35,33.63-21.45,50.66-16.04,28.18,8.96,44.34,30,48.59,37.08,5,8.31,19.43,35.65,8.27,67.15-11.86,33.48-43.5,45.9-51.7,49.11-5.47,2.14-48.67,18.35-81.68-5.01-13.18-9.33-26.46-28.63-25.85-48.11.49-15.63,15.39-24.18,24.81-26.06,23.02-1.77,37.62,3.74,42.39-5.01Z"/>
        </g>
        <ellipse class="cls-5" cx="1269.39" cy="630.5" rx="62.72" ry="60.8"/>
        <g>
          <polygon class="cls-1" points="1305.37 670.84 1321.33 651.65 1376.69 694.91 1360.74 714.09 1305.37 670.84"/>
          <path class="cls-6" d="M1431.72,749.77c-6.74-12.15,22.21-37.72,15.51-53.12-6.69-15.35-33.63-21.45-50.66-16.04-28.18,8.96-44.34,30-48.59,37.08-5,8.31-19.43,35.65-8.27,67.15,11.86,33.48,43.5,45.9,51.7,49.11,5.47,2.14,48.67,18.35,81.68-5.01,13.18-9.33,26.46-28.63,25.85-48.11-.49-15.63-15.39-24.18-24.81-26.06-23.02-1.77-37.62,3.74-42.39-5.01Z"/>
        </g>
        <path class="cls-6" d="M1269.39,521.94l-25.87-18.81s-75.46-60.61-44.11-98.23c31.34-37.62,67.83,0,67.83,0l2.16,2.09,2.16-2.09s36.49-37.62,67.83,0c31.34,37.62-44.11,98.23-44.11,98.23l-25.87,18.81"/>
      </g>
      <g>
        <g>
          <g>
            <path class="cls-2" d="M882.03,798.2c-14.01.16-40.35.16-52.81.05-1.06-6.52-.01-137.49-.37-148.31,0-.45.25-.7,1.27-.84,9.39-.78,18.79.29,27.44,4.13,21.6,9.89,24.19,30.2,24.72,34.39-.19,28.08.39,102.45-.22,110.58l-.03.02Z"/>
            <path class="cls-2" d="M829.18,1053.5c91.59,55.92,192.54,69.96,248.36,156.76,22.51,34.58,36.3,74.91,47.15,114.21.63,1.75,1.44,2.47,3.12,2.55,6.59.08,29.83-.06,35.56.03,9.3.14,9.17-89.52-46.01-151.95-56.66-73.67-156.3-120.15-234.71-158.55.06-41.33-.04-195.24-.02-199.88-10.78-1.21-32.65.08-45.99-.38-1.67-.05-3.14.04-4.72,0-2.57,0-2.71-.04-2.71.46,1.04,10.49-3.42,226.95-.16,236.67l.12.08Z"/>
          </g>
          <path class="cls-2" d="M939.76,865.74c55.94,84.65,117.39,140.54,183.46,186.47,78.53,64.13,105.42,175.87,68.08,269.47-.47,1.48-1.36,3.16-1.23,4.42-.06,1.27,2.21,1.46,3.64,1.4,6.76-.21,18.65.32,24.55-.17,3.87-.74,3.95-6.33,5.23-9.18,22.83-62.1,19.82-192.97-50.61-312.52-35.5-57.13-103.74-131.94-196.45-179.57-7.72-2.67-14.75-2.81-20.7-1.17-17.14,4.74-25.46,24.24-16.09,40.61l.13.23Z"/>
          <path class="cls-2" d="M895.58,1011.73c95.52,17.17,249.29,85.06,275.73,239.28,5.12,26.19,5.58,51.84,7.4,74.56,15.91-51.19,23.5-137.54-7.95-198.07-9.93-19.36-25.89-39.31-41.69-53.13-13-11.13-24.54-20.03-37.49-30.04-61.55-45.3-105.94-63.94-186.4-90.85-1.12-.38-2.18-.74-3.11-1.03-1.96-.61-3.25-.89-3.84-.52-.32.19-.46.55-.53,1.07.06,9.53-3.03,49.11-2.15,58.69l.04.04Z"/>
        </g>
        <g>
          <g>
            <path class="cls-2" d="M1650.94,806.33c14.01.16,40.35.16,52.81.05,1.06-6.52.01-137.49.37-148.31,0-.45-.25-.7-1.27-.84-9.39-.78-18.79.29-27.44,4.13-21.6,9.89-24.19,30.2-24.72,34.39.19,28.08-.39,102.45.22,110.58l.03.02Z"/>
            <path class="cls-2" d="M1703.79,1061.63c-91.59,55.92-192.54,69.96-248.36,156.76-22.51,34.58-36.3,74.91-47.15,114.21-.63,1.75-1.44,2.47-3.12,2.55-6.59.08-29.83-.06-35.56.03-9.3.14-9.17-89.52,46.01-151.95,56.66-73.67,156.3-120.15,234.71-158.55-.06-41.33.04-195.24.02-199.88,10.78-1.21,32.65.08,45.99-.38,1.67-.05,3.14.04,4.72,0,2.57,0,2.71-.04,2.71.46-1.04,10.49,3.42,226.95.16,236.67l-.12.08Z"/>
          </g>
          <path class="cls-2" d="M1583.18,873.23c-55.94,84.65-117.39,140.54-183.46,186.47-78.53,64.13-105.42,175.87-68.08,269.47.47,1.48,1.36,3.16,1.23,4.42.06,1.27-2.21,1.46-3.64,1.4-6.76-.21-18.65.32-24.55-.17-3.87-.74-3.95-6.33-5.23-9.18-22.83-62.1-19.82-192.97,50.61-312.52,35.5-57.13,103.74-131.94,196.45-179.57,7.72-2.67,14.75-2.81,20.7-1.17,17.14,4.74,25.46,24.24,16.09,40.61l-.13.23Z"/>
          <path class="cls-2" d="M1624.81,1019.87c-95.52,17.17-249.29,85.06-275.73,239.28-5.12,26.19-5.58,51.84-7.4,74.56-15.91-51.19-23.5-137.54,7.95-198.07,9.93-19.36,25.89-39.31,41.69-53.13,13-11.13,24.54-20.03,37.49-30.04,61.55-45.3,105.94-63.94,186.4-90.85,1.12-.38,2.18-.74,3.11-1.03,1.96-.61,3.25-.89,3.84-.52.32.19.46.55.53,1.07-.06,9.53,3.03,49.11,2.15,58.69l-.04.04Z"/>
        </g>
      </g>
    </g>
  </g>
</svg>